<svg xmlns="http://www.w3.org/2000/svg" width="128" height="128" fill="none" xmlns:v="https://vecta.io/nano"><rect x="7" y="32" width="114" height="72" rx="12" fill="#b2aeae"/><rect x="7" y="32" width="114" height="72" rx="12" fill="url(#A)"/><rect x="7" y="24" width="114" height="72" rx="12" fill="#d9d9d9"/><rect x="14" y="30" width="100" height="60" rx="7" fill="url(#B)"/><rect x="14" y="30" width="100" height="60" rx="7" fill="url(#C)" fill-opacity=".3"/><path d="M54.949 44.507c-.171-.101-.365-.156-.564-.157s-.394.049-.567.147-.316.24-.416.412-.152.367-.152.565v26.051c0 .199.053.394.152.565s.243.314.416.412.368.149.567.147.393-.056.564-.157l21.981-13.026c.168-.1.307-.241.403-.411s.147-.361.147-.557-.051-.387-.147-.557-.236-.311-.403-.411L54.949 44.507z" fill="#fff" stroke="#fff" stroke-width="2.813" stroke-linejoin="round"/><defs><linearGradient id="A" x1="122.71" y1="89.15" x2="5.29" y2="89.15" gradientUnits="userSpaceOnUse"><stop stop-color="#656565"/><stop offset=".05" stop-color="#969696"/><stop offset=".18" stop-color="#656565"/><stop offset=".808" stop-color="#656565"/><stop offset=".938" stop-color="#969696"/><stop offset="1" stop-color="#656565"/></linearGradient><linearGradient id="B" x1="21.304" y1="30" x2="106.696" y2="90" gradientUnits="userSpaceOnUse"><stop stop-color="#69d876"/><stop offset="1" stop-color="#0e8ca8"/></linearGradient><radialGradient id="C" cx="0" cy="0" r="1" gradientTransform="matrix(9.12092 82.4944 -137.491 13.8555 21.6808 23.1251)" gradientUnits="userSpaceOnUse"><stop stop-color="#fff"/><stop offset=".832" stop-color="#fff" stop-opacity="0"/></radialGradient></defs></svg>